# xmcd CD database file
#
# Track frame offsets:
#	150
#	13953
#	30030
#	45658
#	60847
#
# Disc length: 1027 seconds
#
# Revision: 0
# Processed by: cddbd v1.5.1PL0 Copyright (c) Steve Scherf et al.
# Submitted via: CDex 1.51
#
DISCID=2d040105
DTITLE=PENPALS - LET GO e.p.
DYEAR=1900
DGENRE=ロック (一般)
TTITLE0=LET GO -ALTERNATE VERSION-
TTITLE1=SUMMER TIME
TTITLE2=SEARCH AND DESTROY
TTITLE3=ANYWAY
TTITLE4=EVERYTHING
EXTD=
EXTT0=
EXTT1=
EXTT2=
EXTT3=
EXTT4=
PLAYORDER=
